#Comment line ignore any data following # character 
#Hierarchical Translation and Rotation (.htr) file 
[Header]	
#Header keywords are followed by a single value 
FileType HTR		#Single word string
DataType HTRS		#Translation followed by rotation and scale data
FileVersion 1		#integer
NumSegments 84		#integer
NumFrames 2		#integer
DataFrameRate 30		#integer, data frame rate in this file
EulerRotationOrder ZYX
CalibrationUnits mm
RotationUnits Degrees
GlobalAxisofGravity Y
BoneLengthAxis Y
ScaleFactor 1.00
[SegmentNames&Hierarchy]
#CHILD	PARENT
MASTER GLOBAL
root MASTER
chest root
L_mid_tent01 root
R_mid_tent01 root
spine01 root
Bip01_Neck chest
L_humerus chest
R_humerus chest
weapon_bone chest
Bip01_Head Bip01_Neck
eye_left_bone Bip01_Head
eye_right_bone Bip01_Head
L_forearm L_humerus
L_front_hand L_forearm
L_weapon_bone L_forearm
L_front_hand01_01 L_front_hand
L_front_hand02_01 L_front_hand
L_front_hand03_01 L_front_hand
L_front_hand01_02 L_front_hand01_01
L_front_hand02_02 L_front_hand02_01
L_front_hand03_02 L_front_hand03_01
R_forearm R_humerus
R_front_hand R_forearm
R_weapon_bone R_forearm
R_front_hand01_01 R_front_hand
R_front_hand02_01 R_front_hand
R_front_hand03_01 R_front_hand
R_front_hand01_02 R_front_hand01_01
R_front_hand02_02 R_front_hand02_01
R_front_hand03_02 R_front_hand03_01
null_rope01_connect L_mid_tent01
Rope1_Seg01 null_rope01_connect
Rope1_Seg02 Rope1_Seg01
Rope1_Seg03 Rope1_Seg02
Rope1_Seg04 Rope1_Seg03
Rope1_Seg05 Rope1_Seg04
Rope1_Seg06 Rope1_Seg05
Rope1_Seg07 Rope1_Seg06
Rope1_Seg09 Rope1_Seg07
L_mid_hand01 Rope1_Seg09
L_mid_hand02 Rope1_Seg09
L_mid_hand03 Rope1_Seg09
null_rope02_connect R_mid_tent01
Rope2_Seg01 null_rope02_connect
Rope2_Seg02 Rope2_Seg01
Rope2_Seg03 Rope2_Seg02
Rope2_Seg04 Rope2_Seg03
Rope2_Seg05 Rope2_Seg04
Rope2_Seg06 Rope2_Seg05
Rope2_Seg07 Rope2_Seg06
Rope2_Seg09 Rope2_Seg07
R_mid_hand01 Rope2_Seg09
R_mid_hand02 Rope2_Seg09
R_mid_hand03 Rope2_Seg09
spine02 spine01
spine03 spine02
pelvis spine03
null_rope03_connect pelvis
null_rope04_connect pelvis
Rope3_Seg01 null_rope03_connect
Rope3_Seg02 Rope3_Seg01
Rope3_Seg03 Rope3_Seg02
Rope3_Seg04 Rope3_Seg03
Rope3_Seg05 Rope3_Seg04
Rope3_Seg06 Rope3_Seg05
Rope3_Seg07 Rope3_Seg06
Rope3_Seg08 Rope3_Seg07
Rope3_Seg09 Rope3_Seg08
R_rear_hand01 Rope3_Seg09
R_rear_hand02 Rope3_Seg09
R_rear_hand03 Rope3_Seg09
Rope4_Seg01 null_rope04_connect
Rope4_Seg02 Rope4_Seg01
Rope4_Seg03 Rope4_Seg02
Rope4_Seg04 Rope4_Seg03
Rope4_Seg05 Rope4_Seg04
Rope4_Seg06 Rope4_Seg05
Rope4_Seg07 Rope4_Seg06
Rope4_Seg08 Rope4_Seg07
Rope4_Seg09 Rope4_Seg08
L_rear_hand01 Rope4_Seg09
L_rear_hand02 Rope4_Seg09
L_rear_hand03 Rope4_Seg09
[BasePosition]
#SegmentName Tx, Ty, Tz, Rx, Ry, Rz, BoneLength
MASTER 0.000000 0.000000 0.000000 -90.000000 0.000000 0.000000 10.000000 
root 0.000000 0.000000 0.000000 0.000000 0.000000 0.000000 10.000000 
chest 0.000000 0.000000 0.000000 0.000000 0.000000 0.000000 10.000000 
L_mid_tent01 0.000000 0.000000 0.000000 0.000000 0.000000 0.000000 10.000000 
R_mid_tent01 0.000000 0.000000 0.000000 0.000000 0.000000 0.000000 10.000000 
spine01 0.000000 0.000000 0.000000 0.000000 0.000000 0.000000 10.000000 
Bip01_Neck 0.000000 0.000000 0.000000 0.000000 0.000000 0.000000 10.000000 
L_humerus 0.000000 0.000000 0.000000 0.000000 0.000000 0.000000 10.000000 
R_humerus 0.000000 0.000000 0.000000 0.000000 0.000000 0.000000 10.000000 
weapon_bone 0.000000 0.000000 0.000000 0.000000 0.000000 0.000000 10.000000 
Bip01_Head 0.000000 0.000000 0.000000 0.000000 0.000000 0.000000 10.000000 
eye_left_bone 0.000000 0.000000 0.000000 0.000000 0.000000 0.000000 10.000000 
eye_right_bone 0.000000 0.000000 0.000000 0.000000 0.000000 0.000000 10.000000 
L_forearm 0.000000 0.000000 0.000000 0.000000 0.000000 0.000000 10.000000 
L_front_hand 0.000000 0.000000 0.000000 0.000000 0.000000 0.000000 10.000000 
L_weapon_bone 0.000000 0.000000 0.000000 0.000000 0.000000 0.000000 10.000000 
L_front_hand01_01 0.000000 0.000000 0.000000 0.000000 0.000000 0.000000 10.000000 
L_front_hand02_01 0.000000 0.000000 0.000000 0.000000 0.000000 0.000000 10.000000 
L_front_hand03_01 0.000000 0.000000 0.000000 0.000000 0.000000 0.000000 10.000000 
L_front_hand01_02 0.000000 0.000000 0.000000 0.000000 0.000000 0.000000 10.000000 
L_front_hand02_02 0.000000 0.000000 0.000000 0.000000 0.000000 0.000000 10.000000 
L_front_hand03_02 0.000000 0.000000 0.000000 0.000000 0.000000 0.000000 10.000000 
R_forearm 0.000000 0.000000 0.000000 0.000000 0.000000 0.000000 10.000000 
R_front_hand 0.000000 0.000000 0.000000 0.000000 0.000000 0.000000 10.000000 
R_weapon_bone 0.000000 0.000000 0.000000 0.000000 0.000000 0.000000 10.000000 
R_front_hand01_01 0.000000 0.000000 0.000000 0.000000 0.000000 0.000000 10.000000 
R_front_hand02_01 0.000000 0.000000 0.000000 0.000000 0.000000 0.000000 10.000000 
R_front_hand03_01 0.000000 0.000000 0.000000 0.000000 0.000000 0.000000 10.000000 
R_front_hand01_02 0.000000 0.000000 0.000000 0.000000 0.000000 0.000000 10.000000 
R_front_hand02_02 0.000000 0.000000 0.000000 0.000000 0.000000 0.000000 10.000000 
R_front_hand03_02 0.000000 0.000000 0.000000 0.000000 0.000000 0.000000 10.000000 
null_rope01_connect 0.000000 0.000000 0.000000 0.000000 0.000000 0.000000 10.000000 
Rope1_Seg01 0.000000 0.000000 0.000000 0.000000 0.000000 0.000000 10.000000 
Rope1_Seg02 0.000000 0.000000 0.000000 0.000000 0.000000 0.000000 10.000000 
Rope1_Seg03 0.000000 0.000000 0.000000 0.000000 0.000000 0.000000 10.000000 
Rope1_Seg04 0.000000 0.000000 0.000000 0.000000 0.000000 0.000000 10.000000 
Rope1_Seg05 0.000000 0.000000 0.000000 0.000000 0.000000 0.000000 10.000000 
Rope1_Seg06 0.000000 0.000000 0.000000 0.000000 0.000000 0.000000 10.000000 
Rope1_Seg07 0.000000 0.000000 0.000000 0.000000 0.000000 0.000000 10.000000 
Rope1_Seg09 0.000000 0.000000 0.000000 0.000000 0.000000 0.000000 10.000000 
L_mid_hand01 0.000000 0.000000 0.000000 0.000000 0.000000 0.000000 10.000000 
L_mid_hand02 0.000000 0.000000 0.000000 0.000000 0.000000 0.000000 10.000000 
L_mid_hand03 0.000000 0.000000 0.000000 0.000000 0.000000 0.000000 10.000000 
null_rope02_connect 0.000000 0.000000 0.000000 0.000000 0.000000 0.000000 10.000000 
Rope2_Seg01 0.000000 0.000000 0.000000 0.000000 0.000000 0.000000 10.000000 
Rope2_Seg02 0.000000 0.000000 0.000000 0.000000 0.000000 0.000000 10.000000 
Rope2_Seg03 0.000000 0.000000 0.000000 0.000000 0.000000 0.000000 10.000000 
Rope2_Seg04 0.000000 0.000000 0.000000 0.000000 0.000000 0.000000 10.000000 
Rope2_Seg05 0.000000 0.000000 0.000000 0.000000 0.000000 0.000000 10.000000 
Rope2_Seg06 0.000000 0.000000 0.000000 0.000000 0.000000 0.000000 10.000000 
Rope2_Seg07 0.000000 0.000000 0.000000 0.000000 0.000000 0.000000 10.000000 
Rope2_Seg09 0.000000 0.000000 0.000000 0.000000 0.000000 0.000000 10.000000 
R_mid_hand01 0.000000 0.000000 0.000000 0.000000 0.000000 0.000000 10.000000 
R_mid_hand02 0.000000 0.000000 0.000000 0.000000 0.000000 0.000000 10.000000 
R_mid_hand03 0.000000 0.000000 0.000000 0.000000 0.000000 0.000000 10.000000 
spine02 0.000000 0.000000 0.000000 0.000000 0.000000 0.000000 10.000000 
spine03 0.000000 0.000000 0.000000 0.000000 0.000000 0.000000 10.000000 
pelvis 0.000000 0.000000 0.000000 0.000000 0.000000 0.000000 10.000000 
null_rope03_connect 0.000000 0.000000 0.000000 0.000000 0.000000 0.000000 10.000000 
null_rope04_connect 0.000000 0.000000 0.000000 0.000000 0.000000 0.000000 10.000000 
Rope3_Seg01 0.000000 0.000000 0.000000 0.000000 0.000000 0.000000 10.000000 
Rope3_Seg02 0.000000 0.000000 0.000000 0.000000 0.000000 0.000000 10.000000 
Rope3_Seg03 0.000000 0.000000 0.000000 0.000000 0.000000 0.000000 10.000000 
Rope3_Seg04 0.000000 0.000000 0.000000 0.000000 0.000000 0.000000 10.000000 
Rope3_Seg05 0.000000 0.000000 0.000000 0.000000 0.000000 0.000000 10.000000 
Rope3_Seg06 0.000000 0.000000 0.000000 0.000000 0.000000 0.000000 10.000000 
Rope3_Seg07 0.000000 0.000000 0.000000 0.000000 0.000000 0.000000 10.000000 
Rope3_Seg08 0.000000 0.000000 0.000000 0.000000 0.000000 0.000000 10.000000 
Rope3_Seg09 0.000000 0.000000 0.000000 0.000000 0.000000 0.000000 10.000000 
R_rear_hand01 0.000000 0.000000 0.000000 0.000000 0.000000 0.000000 10.000000 
R_rear_hand02 0.000000 0.000000 0.000000 0.000000 0.000000 0.000000 10.000000 
R_rear_hand03 0.000000 0.000000 0.000000 0.000000 0.000000 0.000000 10.000000 
Rope4_Seg01 0.000000 0.000000 0.000000 0.000000 0.000000 0.000000 10.000000 
Rope4_Seg02 0.000000 0.000000 0.000000 0.000000 0.000000 0.000000 10.000000 
Rope4_Seg03 0.000000 0.000000 0.000000 0.000000 0.000000 0.000000 10.000000 
Rope4_Seg04 0.000000 0.000000 0.000000 0.000000 0.000000 0.000000 10.000000 
Rope4_Seg05 0.000000 0.000000 0.000000 0.000000 0.000000 0.000000 10.000000 
Rope4_Seg06 0.000000 0.000000 0.000000 0.000000 0.000000 0.000000 10.000000 
Rope4_Seg07 0.000000 0.000000 0.000000 0.000000 0.000000 0.000000 10.000000 
Rope4_Seg08 0.000000 0.000000 0.000000 0.000000 0.000000 0.000000 10.000000 
Rope4_Seg09 0.000000 0.000000 0.000000 0.000000 0.000000 0.000000 10.000000 
L_rear_hand01 0.000000 0.000000 0.000000 0.000000 0.000000 0.000000 10.000000 
L_rear_hand02 0.000000 0.000000 0.000000 0.000000 0.000000 0.000000 10.000000 
L_rear_hand03 0.000000 0.000000 0.000000 0.000000 0.000000 0.000000 10.000000 
#Beginning of Data. Separated by tabs
#Fr	Tx	Ty	Tz	Rx	Ry	Rz	SF
[MASTER]
12 0.000000 0.000000 0.000000 0.001660 0.001660 0.001660 0.000000
13 0.000000 0.000000 0.000000 0.001660 0.001660 0.001660 0.000000
[root]
12 -83.226044 -62.680378 1359.805664 -91.907524 -18.402412 -90.420952 1363.791382
13 -78.412491 -62.675686 1387.847046 -91.890160 -20.267174 -90.390274 1391.472656
[chest]
12 -84.512650 -34.090519 0.000000 -4.499481 -0.607542 -175.249603 91.129311
13 -84.512650 -34.090519 0.000000 -4.614219 -0.594516 -175.784317 91.129311
[L_mid_tent01]
12 27.420975 22.107893 -250.698441 7.725775 29.376839 79.005547 253.160782
13 27.388735 22.126368 -250.491257 9.292107 30.328671 84.091179 252.953720
[R_mid_tent01]
12 23.228794 24.509907 226.238495 160.561508 -47.638912 88.325409 228.744751
13 23.228794 24.509907 226.238495 162.064941 -47.035900 86.965485 228.744751
[spine01]
12 -0.361383 -0.195265 0.000000 0.074786 0.406523 12.151587 0.410763
13 -0.361383 -0.195265 0.000000 0.139337 0.411019 12.440424 0.410763
[Bip01_Neck]
12 165.484543 71.581718 0.000119 175.896118 1.177290 24.871180 180.302734
13 165.484543 71.581718 0.000119 175.896118 1.177290 24.871181 180.302734
[L_humerus]
12 -13.983130 -135.272980 -120.471481 -145.923599 -14.381350 -117.680107 181.680161
13 -13.983130 -135.272980 -120.471481 -178.281891 1.886852 -87.432518 181.680161
[R_humerus]
12 -13.983309 -135.273102 125.287651 152.846115 14.342662 -118.412331 184.909012
13 -13.983309 -135.273102 125.287651 -177.927048 -1.023230 -88.291855 184.909012
[weapon_bone]
12 235.964890 -300.705902 0.000000 0.000000 -89.951546 -128.212341 382.234833
13 235.964890 -300.705902 0.000000 0.000000 -89.951546 -128.212341 382.234833
[Bip01_Head]
12 249.112762 144.397339 7.322119 2.595263 2.921210 -43.289131 288.030151
13 250.868149 140.132370 6.439562 2.566160 3.152244 -44.814041 287.425415
[eye_left_bone]
12 -24.626970 125.451866 -64.772606 0.000000 -90.000000 -99.840431 143.318359
13 -24.626970 125.451866 -64.772606 0.000000 -90.000000 -99.840431 143.318359
[eye_right_bone]
12 -24.626970 125.451866 64.327362 0.000000 -89.972023 80.159393 143.117676
13 -24.626970 125.451866 64.327362 0.000000 -89.960434 80.159386 143.117676
[L_forearm]
12 322.776093 0.000000 -0.000119 0.000028 0.002347 -88.637177 322.776093
13 322.776093 0.000000 -0.000119 0.000102 0.002345 -85.028427 322.776093
[L_front_hand]
12 241.149185 -0.042021 -3.300071 -177.732956 0.048779 -82.674255 241.171753
13 241.149185 -0.042021 -3.300071 -177.736206 0.166948 -85.637810 241.171753
[L_weapon_bone]
12 156.183838 0.000000 0.000000 0.001668 0.001651 0.580312 156.183838
13 156.183838 0.000000 0.000000 0.001691 0.001627 2.207571 156.183838
[L_front_hand01_01]
12 86.095154 20.947098 -0.655860 0.386717 -0.455605 -2.289916 88.609184
13 86.095154 20.947098 -0.655860 0.387497 -0.454943 -2.486149 88.609184
[L_front_hand02_01]
12 86.935165 -11.437475 24.513514 116.911720 1.551970 0.442094 91.046425
13 86.935165 -11.437475 24.513514 116.914566 1.724424 0.529263 91.046425
[L_front_hand03_01]
12 86.637497 -14.123976 -20.424902 -118.351334 -2.605420 -1.264874 90.126129
13 86.637497 -14.123976 -20.424902 -118.355553 -2.783385 -1.169354 90.126129
[L_front_hand01_02]
12 71.020905 -0.000179 0.000030 0.001534 0.001777 -8.378850 71.020905
13 71.020905 -0.000179 0.000030 0.001534 0.001777 -8.378850 71.020905
[L_front_hand02_02]
12 71.020927 -0.000119 0.000060 0.001534 0.001777 -8.378850 71.020927
13 71.020927 -0.000119 0.000060 0.001534 0.001777 -8.378850 71.020927
[L_front_hand03_02]
12 71.020905 -0.000060 0.000060 0.001534 0.001777 -8.378850 71.020905
13 71.020905 -0.000060 0.000060 0.001534 0.001777 -8.378850 71.020905
[R_forearm]
12 322.776428 -0.000060 0.000030 0.210380 -0.041668 -79.441467 322.776428
13 322.776428 -0.000060 0.000030 0.205422 -0.049853 -76.646774 322.776428
[R_front_hand]
12 238.847015 -0.006795 2.210259 -1.681901 -0.401423 -92.164078 238.857239
13 238.847015 -0.006795 2.210259 -1.685574 -0.372339 -91.137001 238.857239
[R_weapon_bone]
12 155.664093 0.002503 -0.000030 0.003479 0.001203 -91.763039 155.664078
13 155.664093 0.002503 -0.000030 0.003455 0.001268 -93.920433 155.664078
[R_front_hand01_01]
12 87.624611 14.231146 22.918642 -116.920479 1.884218 -0.501364 91.683487
13 87.624611 14.231146 22.918642 -116.923401 2.017240 -0.569231 91.683487
[R_front_hand02_01]
12 89.356956 14.367283 -19.491137 118.368805 -2.659646 1.473370 92.579636
13 89.356956 14.367283 -19.491137 118.371620 -2.793117 1.401726 92.579636
[R_front_hand03_01]
12 87.286232 -22.307278 -0.143439 -0.384368 -0.242508 2.421112 90.091743
13 87.286232 -22.307278 -0.143439 -0.384688 -0.242002 2.571998 90.091743
[R_front_hand01_02]
12 71.020905 0.000060 0.000119 0.001777 0.001534 8.377220 71.020905
13 71.020905 0.000060 0.000119 0.001777 0.001534 8.377220 71.020905
[R_front_hand02_02]
12 71.020844 -0.000030 -0.000119 0.001777 0.001534 8.377220 71.020836
13 71.020844 -0.000030 -0.000119 0.001777 0.001534 8.377220 71.020836
[R_front_hand03_02]
12 71.020905 0.000000 0.000030 0.001777 0.001534 8.377220 71.020905
13 71.020905 0.000000 0.000030 0.001777 0.001534 8.377220 71.020905
[null_rope01_connect]
12 328.732483 0.000000 -0.000238 -136.027893 -57.706383 167.602844 328.732483
13 328.732483 0.000000 -0.000238 -136.616623 -56.402695 165.454987 328.732483
[Rope1_Seg01]
12 0.000106 0.000000 0.000000 105.412018 46.621887 127.072189 0.000106
13 0.000102 0.000000 0.000000 99.264061 25.697403 114.617844 0.000102
[Rope1_Seg02]
12 139.999863 -0.000179 0.000000 -0.463139 -21.105118 -2.231416 139.999863
13 139.999863 -0.000179 0.000000 -4.634975 -16.782600 -14.316641 139.999863
[Rope1_Seg03]
12 139.999924 0.000060 -0.000060 -0.876519 -9.335249 10.543344 139.999924
13 139.999924 0.000060 -0.000060 -1.612272 -12.288538 13.763260 139.999924
[Rope1_Seg04]
12 139.999924 -0.000060 -0.000119 -0.649621 -11.491142 15.056771 139.999924
13 139.999924 -0.000060 -0.000119 -0.698296 -14.278026 18.450466 139.999924
[Rope1_Seg05]
12 139.999832 0.000119 -0.000060 0.224668 -5.284384 6.659050 139.999832
13 139.999832 0.000119 -0.000060 0.655922 -5.399451 6.733134 139.999832
[Rope1_Seg06]
12 139.999954 0.000119 -0.000060 0.264169 -3.080627 3.859277 139.999954
13 139.999954 0.000119 -0.000060 0.764903 -3.053054 3.865847 139.999954
[Rope1_Seg07]
12 139.999985 0.000060 0.000000 0.276899 -2.047814 2.593839 139.999985
13 139.999985 0.000060 0.000000 0.834133 -1.951214 2.540082 139.999985
[Rope1_Seg09]
12 121.602913 0.000119 -0.000089 -81.834892 -1.358842 0.846202 121.602913
13 121.602913 0.000119 -0.000089 -89.790619 -1.359656 0.847385 121.602913
[L_mid_hand01]
12 103.859421 1.038730 8.195221 104.355705 -0.901418 -0.763260 104.187431
13 103.859421 1.038730 8.195221 104.353416 0.013629 -0.528156 104.187431
[L_mid_hand02]
12 105.572853 -4.139662 -10.864139 -135.678970 4.796079 -4.299522 106.211075
13 105.572853 -4.139662 -10.864139 -135.628418 4.137751 -3.624072 106.211075
[L_mid_hand03]
12 104.641464 17.579376 -3.913581 -18.766209 0.086476 4.153913 106.179977
13 104.641464 17.579376 -3.913581 -18.765747 -0.216536 3.261092 106.179977
[null_rope02_connect]
12 328.732849 0.000179 -0.000119 -133.893906 41.443546 17.658003 328.732849
13 328.732849 0.000179 -0.000119 -132.316452 42.396530 16.800856 328.732849
[Rope2_Seg01]
12 0.000095 0.000153 0.000023 -53.004719 24.798735 35.296608 0.000181
13 0.000095 0.000153 0.000025 -53.297367 27.847488 37.068935 0.000182
[Rope2_Seg02]
12 139.999741 -0.000060 -0.000119 -0.818731 -17.572697 6.662685 139.999756
13 139.999741 -0.000060 -0.000119 0.100780 -13.953682 3.303217 139.999756
[Rope2_Seg03]
12 140.000107 0.000030 0.000000 -0.816063 -14.257421 4.900074 140.000107
13 140.000107 0.000030 0.000000 -1.169609 -18.715172 4.882554 140.000107
[Rope2_Seg04]
12 139.999802 0.000000 -0.000060 -0.756451 -12.465007 5.205468 139.999802
13 139.999802 0.000000 -0.000060 -2.868953 -20.072731 5.278757 139.999802
[Rope2_Seg05]
12 139.999985 -0.000060 0.000119 -0.017519 -7.783065 3.999092 139.999985
13 139.999985 -0.000060 0.000119 -2.253949 -6.755661 0.189222 139.999985
[Rope2_Seg06]
12 139.999893 -0.000030 -0.000119 -0.008236 -4.045196 1.961751 139.999893
13 139.999893 -0.000030 -0.000119 -1.274131 -1.417230 -0.828419 139.999893
[Rope2_Seg07]
12 139.999893 0.000060 -0.000060 -0.019570 -2.510883 1.194303 139.999893
13 139.999893 0.000060 -0.000060 -1.068950 -2.215602 -0.145860 139.999893
[Rope2_Seg09]
12 121.338966 0.000089 -0.000060 64.729713 -0.728213 -1.425692 121.338966
13 121.338966 0.000089 -0.000060 111.274857 0.533284 -1.512978 121.338966
[R_mid_hand01]
12 104.680779 11.144459 -10.335981 -47.378624 3.099110 5.577289 105.778534
13 104.680779 11.144459 -10.335981 -47.346329 3.698228 6.132934 105.778534
[R_mid_hand02]
12 104.070427 2.443552 8.231699 75.626785 -2.427865 1.154696 104.424065
13 104.070427 2.443552 8.231699 75.617386 -3.219931 1.360840 104.424065
[R_mid_hand03]
12 106.028137 -11.221827 -5.996406 -164.386963 2.544686 -6.314023 106.788818
13 106.028137 -11.221827 -5.996406 -164.425858 2.761066 -7.100707 106.788818
[spine02]
12 129.756927 0.001550 0.000119 -0.127994 -4.256719 -6.073947 129.756927
13 129.756927 0.001550 0.000119 -0.138015 -4.238217 -5.929845 129.756927
[spine03]
12 78.912148 0.035419 -1.986168 1.865543 -0.082366 14.272774 78.937149
13 78.887932 0.039622 -2.222567 1.796594 0.299712 12.679909 78.919243
[pelvis]
12 169.435242 0.051022 0.000000 0.013388 1.880630 -3.304399 169.435257
13 169.435242 0.051022 0.000000 0.013325 1.713966 -3.188874 169.435257
[null_rope03_connect]
12 -1.257226 -2.466202 137.391083 133.446030 -88.836685 -42.183121 137.418976
13 -1.257226 -2.466202 137.391083 139.087952 -88.959579 -44.890553 137.418976
[null_rope04_connect]
12 -1.259640 -2.480268 -137.844437 133.446030 -88.836685 -42.183121 137.872513
13 -1.259640 -2.480268 -137.844437 139.087952 -88.959579 -44.890553 137.872513
[Rope3_Seg01]
12 0.000010 0.000026 -0.000106 -55.229595 22.089422 13.306951 0.000110
13 0.000010 0.000025 -0.000102 -63.400234 17.577963 8.460567 0.000105
[Rope3_Seg02]
12 139.999924 -0.000119 0.000060 -16.589411 18.997839 -1.987593 139.999924
13 139.999924 -0.000119 0.000060 -9.874848 14.239115 4.049658 139.999924
[Rope3_Seg03]
12 139.999924 -0.000119 0.000119 -8.170585 13.371043 -0.543312 139.999924
13 139.999924 -0.000119 0.000119 -6.663807 10.870645 1.158462 139.999924
[Rope3_Seg04]
12 139.999924 0.000119 0.000000 -2.742908 11.797539 5.669114 139.999924
13 139.999924 0.000119 0.000000 -1.293641 8.864706 7.586524 139.999924
[Rope3_Seg05]
12 139.999924 -0.000238 0.000060 1.679268 14.448045 16.694502 139.999924
13 139.999924 -0.000238 0.000060 2.962851 7.751536 22.179903 139.999924
[Rope3_Seg06]
12 139.999893 -0.000119 -0.000060 1.549054 9.336815 10.559072 139.999893
13 139.999893 -0.000119 -0.000060 0.784233 5.185246 13.260581 139.999893
[Rope3_Seg07]
12 139.999771 0.000060 -0.000119 1.252403 5.415366 5.479870 139.999771
13 139.999771 0.000060 -0.000119 0.348600 3.077825 6.817836 139.999771
[Rope3_Seg08]
12 139.999985 -0.000060 0.000000 1.017230 3.160993 3.082863 139.999985
13 139.999985 -0.000060 0.000000 0.313553 1.762721 3.865320 139.999985
[Rope3_Seg09]
12 90.185997 -0.000179 -0.000060 70.190514 -1.361931 -0.846197 90.185997
13 90.185997 -0.000179 -0.000060 69.057983 -1.359011 -0.848998 90.185997
[R_rear_hand01]
12 103.366196 -6.073594 -10.757982 -156.165756 6.542216 -3.867821 104.101845
13 103.366196 -6.073594 -10.757982 -156.079987 6.195697 -3.079981 104.101845
[R_rear_hand02]
12 100.509819 12.039542 -7.992327 -38.668800 2.685754 6.372328 101.543350
13 100.509819 12.039542 -7.992327 -38.700245 2.146487 5.699683 101.543350
[R_rear_hand03]
12 101.539970 5.215704 5.435467 84.299950 -3.525835 4.214356 101.819031
13 101.539970 5.215704 5.435467 84.309692 -2.668074 4.128508 101.819031
[Rope4_Seg01]
12 -0.000009 0.000018 -0.000100 -2.180068 34.078979 -171.409470 0.000102
13 -0.000010 0.000013 -0.000102 12.894567 33.464737 -156.742508 0.000103
[Rope4_Seg02]
12 139.999985 0.000060 0.000119 1.396871 4.374477 4.367170 139.999985
13 139.999985 0.000060 0.000119 -2.657756 3.134474 -3.654634 139.999985
[Rope4_Seg03]
12 139.999924 0.000000 -0.000238 2.421124 2.722117 6.311837 139.999924
13 139.999924 0.000000 -0.000238 -1.212072 0.591169 -2.260128 139.999924
[Rope4_Seg04]
12 139.999985 0.000000 0.000119 3.152127 -0.255749 8.259271 139.999985
13 139.999985 0.000000 0.000119 0.475425 -2.622307 -0.597920 139.999985
[Rope4_Seg05]
12 139.999802 -0.000060 -0.000119 -5.319193 36.513641 -8.942110 139.999802
13 139.999802 -0.000060 -0.000119 -18.590879 33.186024 -23.550320 139.999802
[Rope4_Seg06]
12 139.999924 0.000000 0.000060 7.522550 33.735134 -8.615313 139.999924
13 139.999924 0.000000 0.000060 -1.222391 30.760870 -11.962904 139.999924
[Rope4_Seg07]
12 139.999802 0.000000 0.000000 6.625919 10.697910 -3.931096 139.999802
13 139.999802 0.000000 0.000000 2.480000 9.204511 -3.749867 139.999802
[Rope4_Seg08]
12 139.999924 0.000000 0.000119 2.466312 4.625401 -2.354534 139.999924
13 139.999924 0.000000 0.000119 0.083973 4.198564 -1.940313 139.999924
[Rope4_Seg09]
12 90.185791 0.000060 0.000060 -117.284866 2.230470 0.851545 90.185791
13 90.185791 0.000060 0.000060 -115.784508 2.226526 0.850276 90.185791
[L_rear_hand01]
12 101.696655 -8.392275 -7.654577 -38.742985 -0.568582 176.270737 102.329041
13 101.696655 -8.392275 -7.654577 -38.748825 0.030386 177.019928 102.329041
[L_rear_hand02]
12 102.726799 -1.568258 5.773216 84.311096 0.157661 176.123489 102.900848
13 102.726799 -1.568258 5.773216 84.315819 -0.800982 176.216553 102.900848
[L_rear_hand03]
12 104.552910 9.721220 -10.420293 -155.850250 -5.169557 -179.240158 105.519653
13 104.552910 9.721220 -10.420293 -155.769562 -4.774130 179.879120 105.519653
